<?xml version="1.0" standalone="no"?><!DOCTYPE svg PUBLIC "-//W3C//DTD SVG 1.1//EN" "http://www.w3.org/Graphics/SVG/1.1/DTD/svg11.dtd"><svg t="1618918945304" class="icon" viewBox="0 0 1024 1024" version="1.1" xmlns="http://www.w3.org/2000/svg" p-id="2023" xmlns:xlink="http://www.w3.org/1999/xlink" width="200" height="200"><defs><style type="text/css"></style></defs><path d="M512 512m-512 0a512 512 0 1 0 1024 0 512 512 0 1 0-1024 0Z" fill="#5090F1" p-id="2024"></path><path d="M311.585735 246.935972m6.464976 6.464977l452.54834 452.54834q6.464976 6.464976 0 12.929952l-51.71981 51.71981q-6.464976 6.464976-12.929952 0l-452.54834-452.54834q-6.464976-6.464976 0-12.929952l51.71981-51.71981q6.464976-6.464976 12.929952 0Z" fill="#FFFFFF" p-id="2025"></path><path d="M712.414265 246.935972m6.464976 6.464977l51.71981 51.71981q6.464976 6.464976 0 12.929952l-452.54834 452.54834q-6.464976 6.464976-12.929952 0l-51.71981-51.71981q-6.464976-6.464976 0-12.929952l452.54834-452.54834q6.464976-6.464976 12.929952 0Z" fill="#FFFFFF" p-id="2026"></path></svg>